{
  "accessors": [
    {
      "bufferView": 2,
      "componentType": 5126,
      "count": 65532,
      "max": [
        8951.9423828125,
        8270.0,
        8875.6318359375
      ],
      "min": [
        -8951.9423828125,
        3988.0,
        -8875.6318359375
      ],
      "type": "VEC3"
    },
    {
      "bufferView": 2,
      "byteOffset": 786384,
      "componentType": 5126,
      "count": 65532,
      "max": [
        0.9618483185768127,
        1.0,
        0.9155578017234802
      ],
      "min": [
        -0.9434497952461243,
        0.17170540988445282,
        -0.9684050679206848
      ],
      "type": "VEC3"
    },
    {
      "bufferView": 1,
      "componentType": 5126,
      "count": 65532,
      "max": [
        1.0,
        1.0
      ],
      "min": [
        0.0,
        0.0
      ],
      "type": "VEC2"
    },
    {
      "bufferView": 0,
      "componentType": 5125,
      "count": 386262,
      "type": "SCALAR"
    },
    {
      "bufferView": 2,
      "byteOffset": 1572768,
      "componentType": 5126,
      "count": 65532,
      "max": [
        8921.0205078125,
        8278.0,
        8875.6318359375
      ],
      "min": [
        -8951.9423828125,
        5026.0,
        -5473.8779296875
      ],
      "type": "VEC3"
    },
    {
      "bufferView": 2,
      "byteOffset": 2359152,
      "componentType": 5126,
      "count": 65532,
      "max": [
        0.9601830244064331,
        1.0,
        0.9154496192932129
      ],
      "min": [
        -0.9631134271621704,
        0.18636944890022278,
        -0.9805883765220642
      ],
      "type": "VEC3"
    },
    {
      "bufferView": 1,
      "byteOffset": 524256,
      "componentType": 5126,
      "count": 65532,
      "max": [
        0.9982728958129883,
        1.0
      ],
      "min": [
        0.0,
        0.19163446128368378
      ],
      "type": "VEC2"
    },
    {
      "bufferView": 0,
      "byteOffset": 1545048,
      "componentType": 5125,
      "count": 386919,
      "type": "SCALAR"
    },
    {
      "bufferView": 2,
      "byteOffset": 3145536,
      "componentType": 5126,
      "count": 65532,
      "max": [
        8890.0986328125,
        7958.0,
        8875.6318359375
      ],
      "min": [
        -8951.9423828125,
        5566.0,
        -2103.023681640625
      ],
      "type": "VEC3"
    },
    {
      "bufferView": 2,
      "byteOffset": 3931920,
      "componentType": 5126,
      "count": 65532,
      "max": [
        0.973507285118103,
        1.0,
        0.9471723437309265
      ],
      "min": [
        -0.9737639427185059,
        0.17741194367408752,
        -0.9555137753486633
      ],
      "type": "VEC3"
    },
    {
      "bufferView": 1,
      "byteOffset": 1048512,
      "componentType": 5126,
      "count": 65532,
      "max": [
        0.9965457916259766,
        1.0
      ],
      "min": [
        0.0,
        0.38152822852134705
      ],
      "type": "VEC2"
    },
    {
      "bufferView": 0,
      "byteOffset": 3092724,
      "componentType": 5125,
      "count": 387585,
      "type": "SCALAR"
    },
    {
      "bufferView": 2,
      "byteOffset": 4718304,
      "componentType": 5126,
      "count": 65532,
      "max": [
        8859.17578125,
        7996.0,
        8875.6318359375
      ],
      "min": [
        -8951.9423828125,
        4942.0,
        1329.7078857421875
      ],
      "type": "VEC3"
    },
    {
      "bufferView": 2,
      "byteOffset": 5504688,
      "componentType": 5126,
      "count": 65532,
      "max": [
        0.9630035758018494,
        1.0,
        0.9299291372299194
      ],
      "min": [
        -0.9775964617729187,
        0.18739648163318634,
        -0.9587556719779968
      ],
      "type": "VEC3"
    },
    {
      "bufferView": 1,
      "byteOffset": 1572768,
      "componentType": 5126,
      "count": 65532,
      "max": [
        0.9948185682296753,
        1.0
      ],
      "min": [
        0.0,
        0.5749077796936035
      ],
      "type": "VEC2"
    },
    {
      "bufferView": 0,
      "byteOffset": 4643064,
      "componentType": 5125,
      "count": 388260,
      "type": "SCALAR"
    },
    {
      "bufferView": 2,
      "byteOffset": 6291072,
      "componentType": 5126,
      "count": 65532,
      "max": [
        8828.25390625,
        8200.0,
        8875.6318359375
      ],
      "min": [
        -8951.9423828125,
        5412.0,
        4824.3193359375
      ],
      "type": "VEC3"
    },
    {
      "bufferView": 2,
      "byteOffset": 7077456,
      "componentType": 5126,
      "count": 65532,
      "max": [
        0.9519922733306885,
        1.0,
        0.9070521593093872
      ],
      "min": [
        -0.9357936382293701,
        0.17372313141822815,
        -0.9578925371170044
      ],
      "type": "VEC3"
    },
    {
      "bufferView": 1,
      "byteOffset": 2097024,
      "componentType": 5126,
      "count": 65532,
      "max": [
        0.9930914640426636,
        1.0
      ],
      "min": [
        0.0,
        0.7717732787132263
      ],
      "type": "VEC2"
    },
    {
      "bufferView": 0,
      "byteOffset": 6196104,
      "componentType": 5125,
      "count": 388938,
      "type": "SCALAR"
    },
    {
      "bufferView": 2,
      "byteOffset": 7863840,
      "componentType": 5126,
      "count": 9951,
      "max": [
        8797.33203125,
        8014.0,
        8875.6318359375
      ],
      "min": [
        -8951.9423828125,
        5700.0,
        -5473.8779296875
      ],
      "type": "VEC3"
    },
    {
      "bufferView": 2,
      "byteOffset": 7983252,
      "componentType": 5126,
      "count": 9951,
      "max": [
        0.9263831377029419,
        1.0,
        0.9139198064804077
      ],
      "min": [
        -0.9496577978134155,
        0.2441035956144333,
        -0.9542516469955444
      ],
      "type": "VEC3"
    },
    {
      "bufferView": 1,
      "byteOffset": 2621280,
      "componentType": 5126,
      "count": 9951,
      "max": [
        0.9913643598556519,
        1.0
      ],
      "min": [
        0.0,
        0.19163446128368378
      ],
      "type": "VEC2"
    },
    {
      "bufferView": 0,
      "byteOffset": 7751856,
      "componentType": 5125,
      "count": 56112,
      "type": "SCALAR"
    },
    {
      "bufferView": 2,
      "byteOffset": 8102664,
      "componentType": 5126,
      "count": 4083,
      "max": [
        8084.9912109375,
        7762.68603515625,
        3920.62841796875
      ],
      "min": [
        -2192.313720703125,
        5532.71240234375,
        -8433.056640625
      ],
      "type": "VEC3"
    },
    {
      "bufferView": 2,
      "byteOffset": 8151660,
      "componentType": 5126,
      "count": 4083,
      "max": [
        1.0,
        1.0,
        1.0
      ],
      "min": [
        -1.0,
        0.0,
        -1.0
      ],
      "type": "VEC3"
    },
    {
      "bufferView": 0,
      "byteOffset": 7976304,
      "componentType": 5125,
      "count": 6291,
      "type": "SCALAR"
    },
    {
      "bufferView": 2,
      "byteOffset": 8200656,
      "componentType": 5126,
      "count": 65533,
      "max": [
        16520.103515625,
        8064.00390625,
        11550.0439453125
      ],
      "min": [
        -8684.32421875,
        4057.0,
        -16759.662109375
      ],
      "type": "VEC3"
    },
    {
      "bufferView": 2,
      "byteOffset": 8987052,
      "componentType": 5126,
      "count": 65533,
      "max": [
        0.98867267370224,
        1.0,
        0.9709945917129517
      ],
      "min": [
        -0.9625803232192993,
        -0.9043406844139099,
        -0.9955331087112427
      ],
      "type": "VEC3"
    },
    {
      "bufferView": 0,
      "byteOffset": 8001468,
      "componentType": 5125,
      "count": 195201,
      "type": "SCALAR"
    },
    {
      "bufferView": 2,
      "byteOffset": 9773448,
      "componentType": 5126,
      "count": 18457,
      "max": [
        10018.435546875,
        7935.5341796875,
        8293.4609375
      ],
      "min": [
        -10296.318359375,
        3647.195556640625,
        -9324.5048828125
      ],
      "type": "VEC3"
    },
    {
      "bufferView": 2,
      "byteOffset": 9994932,
      "componentType": 5126,
      "count": 18457,
      "max": [
        0.9716420769691467,
        1.0,
        0.9700204730033875
      ],
      "min": [
        -0.9710455536842346,
        -0.8139786720275879,
        -0.9954156875610352
      ],
      "type": "VEC3"
    },
    {
      "bufferView": 0,
      "byteOffset": 8782272,
      "componentType": 5125,
      "count": 54699,
      "type": "SCALAR"
    }
  ],
  "asset": {
    "extras": {
      "author": "Xavier Fischer - Elevation API (https://sketchfab.com/xfischer)",
      "license": "CC-BY-NC-SA-4.0 (http://creativecommons.org/licenses/by-nc-sa/4.0/)",
      "source": "https://sketchfab.com/3d-models/quilotoa-ecuador-a787b1db86c644739ff9b708ed58631f",
      "title": "Quilotoa, Ecuador"
    },
    "generator": "Sketchfab-12.68.0",
    "version": "2.0"
  },
  "bufferViews": [
    {
      "buffer": 0,
      "byteLength": 9001068,
      "name": "floatBufferViews",
      "target": 34963
    },
    {
      "buffer": 0,
      "byteLength": 2700888,
      "byteOffset": 9001068,
      "byteStride": 8,
      "name": "floatBufferViews",
      "target": 34962
    },
    {
      "buffer": 0,
      "byteLength": 10216416,
      "byteOffset": 11701956,
      "byteStride": 12,
      "name": "floatBufferViews",
      "target": 34962
    }
  ],
  "buffers": [
    {
      "byteLength": 21918372,
      "uri": "scene.bin"
    }
  ],
  "images": [
    {
      "uri": "textures/TerrainNodeMaterial_baseColor.jpeg"
    }
  ],
  "materials": [
    {
      "doubleSided": true,
      "name": "TerrainNodeMaterial",
      "pbrMetallicRoughness": {
        "baseColorTexture": {
          "index": 0
        },
        "metallicFactor": 0.0
      }
    },
    {
      "doubleSided": true,
      "name": "BuildingsMaterial",
      "pbrMetallicRoughness": {
        "metallicFactor": 0.0
      }
    },
    {
      "doubleSided": true,
      "name": "RoadsMaterial",
      "pbrMetallicRoughness": {
        "metallicFactor": 0.0,
        "roughnessFactor": 0.9
      }
    }
  ],
  "meshes": [
    {
      "name": "Object_0",
      "primitives": [
        {
          "attributes": {
            "NORMAL": 1,
            "POSITION": 0,
            "TEXCOORD_0": 2
          },
          "indices": 3,
          "material": 0,
          "mode": 4
        }
      ]
    },
    {
      "name": "Object_1",
      "primitives": [
        {
          "attributes": {
            "NORMAL": 5,
            "POSITION": 4,
            "TEXCOORD_0": 6
          },
          "indices": 7,
          "material": 0,
          "mode": 4
        }
      ]
    },
    {
      "name": "Object_2",
      "primitives": [
        {
          "attributes": {
            "NORMAL": 9,
            "POSITION": 8,
            "TEXCOORD_0": 10
          },
          "indices": 11,
          "material": 0,
          "mode": 4
        }
      ]
    },
    {
      "name": "Object_3",
      "primitives": [
        {
          "attributes": {
            "NORMAL": 13,
            "POSITION": 12,
            "TEXCOORD_0": 14
          },
          "indices": 15,
          "material": 0,
          "mode": 4
        }
      ]
    },
    {
      "name": "Object_4",
      "primitives": [
        {
          "attributes": {
            "NORMAL": 17,
            "POSITION": 16,
            "TEXCOORD_0": 18
          },
          "indices": 19,
          "material": 0,
          "mode": 4
        }
      ]
    },
    {
      "name": "Object_5",
      "primitives": [
        {
          "attributes": {
            "NORMAL": 21,
            "POSITION": 20,
            "TEXCOORD_0": 22
          },
          "indices": 23,
          "material": 0,
          "mode": 4
        }
      ]
    },
    {
      "name": "Object_6",
      "primitives": [
        {
          "attributes": {
            "NORMAL": 25,
            "POSITION": 24
          },
          "indices": 26,
          "material": 1,
          "mode": 4
        }
      ]
    },
    {
      "name": "Object_7",
      "primitives": [
        {
          "attributes": {
            "NORMAL": 28,
            "POSITION": 27
          },
          "indices": 29,
          "material": 2,
          "mode": 4
        }
      ]
    },
    {
      "name": "Object_8",
      "primitives": [
        {
          "attributes": {
            "NORMAL": 31,
            "POSITION": 30
          },
          "indices": 32,
          "material": 2,
          "mode": 4
        }
      ]
    }
  ],
  "nodes": [
    {
      "children": [
        1
      ],
      "matrix": [
        1.0,
        0.0,
        0.0,
        0.0,
        0.0,
        2.220446049250313e-16,
        -1.0,
        0.0,
        0.0,
        1.0,
        2.220446049250313e-16,
        0.0,
        0.0,
        0.0,
        0.0,
        1.0
      ],
      "name": "Sketchfab_model"
    },
    {
      "children": [
        2
      ],
      "name": "root"
    },
    {
      "children": [
        3,
        10,
        12
      ],
      "matrix": [
        1.0,
        0.0,
        0.0,
        0.0,
        0.0,
        2.220446049250313e-16,
        1.0,
        0.0,
        0.0,
        -1.0,
        2.220446049250313e-16,
        0.0,
        0.0,
        0.0,
        0.0,
        1.0
      ],
      "name": "GLTF_SceneRootNode"
    },
    {
      "children": [
        4,
        5,
        6,
        7,
        8,
        9
      ],
      "name": "TerrainNode_0"
    },
    {
      "mesh": 0,
      "name": "Object_4"
    },
    {
      "mesh": 1,
      "name": "Object_5"
    },
    {
      "mesh": 2,
      "name": "Object_6"
    },
    {
      "mesh": 3,
      "name": "Object_7"
    },
    {
      "mesh": 4,
      "name": "Object_8"
    },
    {
      "mesh": 5,
      "name": "Object_9"
    },
    {
      "children": [
        11
      ],
      "name": "Buildings_1"
    },
    {
      "mesh": 6,
      "name": "Object_11"
    },
    {
      "children": [
        13,
        14
      ],
      "name": "Roads_2"
    },
    {
      "mesh": 7,
      "name": "Object_13"
    },
    {
      "mesh": 8,
      "name": "Object_14"
    }
  ],
  "samplers": [
    {
      "magFilter": 9729,
      "minFilter": 9987,
      "wrapS": 10497,
      "wrapT": 10497
    }
  ],
  "scene": 0,
  "scenes": [
    {
      "name": "Sketchfab_Scene",
      "nodes": [
        0
      ]
    }
  ],
  "textures": [
    {
      "sampler": 0,
      "source": 0
    }
  ]
}
